<svg width="20" height="22" viewBox="0 0 20 22" fill="none" xmlns="http://www.w3.org/2000/svg">
<path d="M2.88545 11.9357H2C1.44772 11.9357 1 12.3834 1 12.9357V17.2205C1 17.7728 1.44771 18.2205 2 18.2205H2.88545M2.88545 11.9357H3.7709C4.32319 11.9357 4.7709 12.3834 4.7709 12.9357V17.2205C4.7709 17.7728 4.32319 18.2205 3.7709 18.2205H2.88545M2.88545 11.9357V8.91895M2.88545 18.2205V19.4146V20.6087" stroke="#212060" stroke-width="2" stroke-linecap="round"/>
<path d="M9.67309 6.27931H8.78764C8.23536 6.27931 7.78764 6.72703 7.78764 7.27931V14.958C7.78764 15.5102 8.23536 15.958 8.78764 15.958H9.67309M9.67309 6.27931H10.5585C11.1108 6.27931 11.5585 6.72703 11.5585 7.27931V14.958C11.5585 15.5102 11.1108 15.958 10.5585 15.958H9.67309M9.67309 6.27931V2.8855M9.67309 15.958V17.1521V19.1004" stroke="#212060" stroke-width="2" stroke-linecap="round"/>
<path d="M16.4607 3.63963H15.5752C15.023 3.63963 14.5752 4.08735 14.5752 4.63963V11.9412C14.5752 12.4935 15.023 12.9412 15.5752 12.9412H16.4607M16.4607 3.63963H17.3461C17.8984 3.63963 18.3461 4.08735 18.3461 4.63963V11.9412C18.3461 12.4935 17.8984 12.9412 17.3461 12.9412H16.4607M16.4607 3.63963V1M16.4607 12.9412V14.1353V15.3294" stroke="#212060" stroke-width="2" stroke-linecap="round"/>
</svg>
