<svg width="78" height="84" viewBox="0 0 42 66" fill="none" xmlns="http://www.w3.org/2000/svg">
<path d="M35.2967 47.4362V33.5392C35.2967 31.33 33.5058 29.5392 31.2967 29.5392H18.8739H6.45117C4.24203 29.5392 2.45117 31.33 2.45117 33.5392V47.4362C2.45117 49.6453 4.24203 51.4362 6.45117 51.4362H31.2967C33.5058 51.4362 35.2967 49.6453 35.2967 47.4362Z" stroke="#33325D" stroke-width="3"/>
<path d="M16.1368 29.5392V51.1692" stroke="#33325D" stroke-opacity="0.25" stroke-width="3"/>
<path d="M21.611 29.5392V51.1692" stroke="#33325D" stroke-opacity="0.25" stroke-width="3"/>
<path d="M38.8111 28.1028L39.4962 26.0559C39.8468 25.0084 39.2818 23.8751 38.2343 23.5245L22.6105 18.2957L6.98661 13.0669C5.93914 12.7163 4.80582 13.2813 4.45526 14.3287L3.77021 16.3757C3.41966 17.4231 3.98462 18.5565 5.03209 18.907L36.2798 29.3647C37.3273 29.7152 38.4606 29.1503 38.8111 28.1028Z" stroke="#33325D" stroke-width="3"/>
<path d="M20.0149 17.427L18.0842 23.1959" stroke="#33325D" stroke-opacity="0.25" stroke-width="3"/>
<path d="M25.2061 19.1643L23.2754 24.9332" stroke="#33325D" stroke-opacity="0.25" stroke-width="3"/>
<path d="M23.2689 10.4912C23.7492 12.3161 23.7871 13.9959 23.5261 15.2093C23.2454 16.5147 22.7499 16.8365 22.5691 16.8841C22.3884 16.9317 21.7986 16.8955 20.9117 15.8973C20.0872 14.9696 19.2933 13.4887 18.8131 11.6639C18.3328 9.839 18.2949 8.15922 18.5558 6.94581C18.8365 5.64034 19.3321 5.31853 19.5128 5.27096C19.6936 5.22338 20.2834 5.25958 21.1703 6.25774C21.9947 7.18552 22.7887 8.66633 23.2689 10.4912Z" stroke="#33325D" stroke-width="3"/>
<path d="M28.604 15.3219C27.5379 16.3907 26.4034 17.0844 25.4878 17.3853C25.0307 17.5355 24.6858 17.5691 24.4601 17.5491C24.2507 17.5304 24.1944 17.4734 24.1888 17.4677L24.1886 17.4675L24.1883 17.4672C24.1827 17.4617 24.1255 17.4055 24.1063 17.1962C24.0857 16.9705 24.1184 16.6255 24.2675 16.1681C24.5661 15.2517 25.2569 14.1154 26.323 13.0467C27.389 11.978 28.5235 11.2843 29.4392 10.9834C29.8963 10.8331 30.2412 10.7995 30.4669 10.8196C30.6762 10.8382 30.7326 10.8953 30.7381 10.9009C30.7382 10.901 30.7383 10.9011 30.7384 10.9012C30.7384 10.9012 30.7385 10.9013 30.7386 10.9014C30.7443 10.907 30.8015 10.9632 30.8207 11.1725C30.8413 11.3981 30.8085 11.7431 30.6594 12.2006C30.3608 13.1169 29.67 14.2532 28.604 15.3219Z" stroke="#33325D" stroke-width="3"/>
<path d="M19.9004 15.8536C19.102 14.7131 16.7527 12.0216 13.7418 10.3794C10.731 8.73707 10.2064 4.22081 10.3204 2.16797" stroke="#33325D" stroke-width="3" stroke-linecap="round"/>
<path d="M38.4203 19.3557C39.2208 19.1423 39.6967 18.3203 39.4832 17.5199C39.2697 16.7194 38.4478 16.2436 37.6474 16.457L38.4203 19.3557ZM25.1063 19.3822C26.43 19.6228 28.641 19.9047 31.0543 19.9871C33.4484 20.0689 36.1574 19.9592 38.4203 19.3557L37.6474 16.457C35.8046 16.9484 33.4385 17.0668 31.1567 16.9889C28.8941 16.9116 26.8283 16.6461 25.643 16.4306L25.1063 19.3822Z" fill="#33325D"/>
<path d="M12.9907 48.3292V38.5292H17.1207C19.2067 38.5292 20.6207 39.9152 20.6207 41.8192C20.6207 43.7232 19.2067 45.1092 17.1207 45.1092H15.0907V48.3292H12.9907ZM15.0907 43.1492H17.0507C17.8907 43.1492 18.4507 42.6032 18.4507 41.8192C18.4507 41.0352 17.8907 40.4892 17.0507 40.4892H15.0907V43.1492ZM23.3463 48.3292V41.1892H21.6663V39.8592C22.4503 39.7612 22.9403 39.4392 23.2623 39.1172C23.4443 38.9352 23.5843 38.7392 23.6963 38.5292H25.4463V48.3292H23.3463ZM14.3133 63.5792C15.3633 63.5792 16.4133 62.5292 16.4133 60.4292C16.4133 58.3292 15.3633 57.2792 14.3133 57.2792C13.2633 57.2792 12.2133 58.3292 12.2133 60.4292C12.2133 62.5292 13.2633 63.5792 14.3133 63.5792ZM14.3133 65.5392C12.0733 65.5392 10.1133 63.5792 10.1133 60.4292C10.1133 57.2792 12.0733 55.3192 14.3133 55.3192C16.5533 55.3192 18.5133 57.2792 18.5133 60.4292C18.5133 63.5792 16.5533 65.5392 14.3133 65.5392ZM24.1161 63.5792C25.1661 63.5792 26.2161 62.5292 26.2161 60.4292C26.2161 58.3292 25.1661 57.2792 24.1161 57.2792C23.0661 57.2792 22.0161 58.3292 22.0161 60.4292C22.0161 62.5292 23.0661 63.5792 24.1161 63.5792ZM24.1161 65.5392C21.8761 65.5392 19.9161 63.5792 19.9161 60.4292C19.9161 57.2792 21.8761 55.3192 24.1161 55.3192C26.3561 55.3192 28.3161 57.2792 28.3161 60.4292C28.3161 63.5792 26.3561 65.5392 24.1161 65.5392Z" fill="#33325D"/>
</svg>
